<svg xmlns="http://www.w3.org/2000/svg" viewBox="0 0 1024 1024" width="960" height="960">
  <g transform="translate(0,1024) scale(0.1,-0.1)" fill="#000000" stroke="none">
    <path d="M4463 7680 c-151 -32 -331 -162 -409 -297 l-27 -44 -51 6 c-179 22
-436 -90 -592 -259 -115 -123 -172 -235 -200 -396 l-17 -95 -96 -45 c-235
-110 -381 -286 -448 -539 -45 -168 -33 -413 26 -546 l20 -46 -34 -48 c-48 -67
-101 -182 -126 -276 -17 -63 -22 -111 -22 -225 -1 -128 2 -156 25 -242 46
-164 121 -304 233 -433 50 -58 52 -63 58 -131 3 -39 18 -107 32 -150 75 -222
245 -380 484 -450 l73 -21 27 -69 c99 -250 338 -458 637 -554 451 -145 836 41
951 460 16 59 18 122 18 728 l0 664 -28 24 c-37 32 -87 32 -124 0 l-28 -24 -5
-654 c-5 -643 -6 -654 -28 -719 -26 -79 -89 -177 -140 -219 -20 -17 -69 -47
-109 -67 -59 -29 -85 -36 -156 -40 -46 -3 -106 -2 -132 1 l-47 8 30 31 c38 41
52 69 52 104 -1 65 -43 80 -124 46 -175 -73 -343 -38 -468 98 -57 62 -115 167
-96 173 7 2 54 11 103 21 183 35 349 121 477 248 94 93 138 159 138 207 0 60
-55 101 -115 86 -14 -4 -47 -35 -78 -74 -148 -185 -334 -285 -557 -299 -125
-8 -201 7 -310 59 -190 91 -304 277 -299 485 l2 63 -65 69 c-164 173 -241 356
-242 576 -1 89 3 124 23 185 19 61 53 144 66 158 2 2 43 -37 92 -87 49 -50
105 -97 125 -105 50 -21 102 -6 124 36 25 48 7 94 -56 141 -113 84 -224 261
-257 408 -21 95 -21 245 1 329 36 142 131 295 223 363 57 40 130 82 159 91 18
5 22 1 28 -25 3 -17 23 -68 45 -114 39 -83 71 -115 116 -115 36 0 74 30 86 68
10 35 8 45 -29 132 -68 158 -74 284 -22 423 48 128 186 275 316 337 77 37 173
62 222 58 l37 -3 2 -69 c2 -89 22 -193 40 -212 24 -24 59 -27 97 -9 55 26 60
44 46 146 -10 70 -10 101 -1 151 26 131 114 240 248 305 73 35 84 38 168 38
79 0 95 -3 135 -27 55 -32 81 -60 112 -118 l23 -45 3 -797 2 -798 -570 0 -570
0 0 24 c0 13 -2 31 -6 39 -4 12 138 149 354 340 l42 37 33 -16 c49 -26 163
-30 228 -9 189 63 241 322 91 457 -59 53 -105 71 -187 71 -116 1 -204 -54
-257 -162 -26 -51 -31 -159 -10 -198 11 -19 1 -32 -131 -155 -78 -74 -169
-157 -201 -185 l-59 -51 -46 21 c-25 11 -76 22 -112 25 -56 4 -75 1 -120 -20
-61 -28 -111 -75 -142 -133 -31 -57 -31 -183 0 -241 46 -86 155 -154 248 -154
87 0 193 57 241 130 l27 40 573 0 574 0 0 -31 c0 -43 47 -89 92 -89 38 0 75
28 83 63 3 12 4 427 3 922 l-3 900 -23 57 c-49 121 -142 213 -263 259 -61 24
-206 34 -276 19z"/>
    <path d="M5547 7679 c-115 -27 -239 -124 -292 -228 -55 -110 -56 -120 -44
-889 6 -387 8 -710 5 -718 -10 -26 20 -83 47 -89 46 -12 71 -2 89 35 32 66 39
216 37 877 -1 641 -1 642 20 687 25 51 71 95 134 128 34 19 58 23 128 23 80 0
91 -3 165 -40 197 -100 285 -275 239 -476 -22 -95 -15 -126 33 -150 90 -46
147 42 156 242 l4 74 64 -1 c179 -5 393 -155 486 -344 77 -157 79 -306 7 -475
-39 -91 -41 -104 -20 -144 26 -52 110 -65 148 -23 20 22 72 132 88 188 15 51
20 51 109 1 140 -79 255 -240 306 -428 22 -80 25 -270 5 -349 -33 -133 -121
-279 -230 -383 -69 -66 -81 -84 -81 -122 0 -35 50 -85 85 -85 50 0 124 56 200
150 27 33 53 59 59 57 18 -6 56 -114 72 -210 14 -78 14 -107 5 -189 -25 -203
-122 -399 -256 -513 l-55 -47 0 -74 c0 -99 -15 -165 -57 -251 -107 -220 -368
-333 -645 -278 -203 40 -368 147 -475 307 -46 68 -135 71 -169 6 -20 -39 -11
-77 33 -136 137 -183 324 -302 561 -357 35 -8 77 -15 94 -15 28 0 30 -2 24
-27 -19 -76 -136 -207 -221 -247 -111 -53 -215 -56 -329 -10 -78 31 -111 31
-132 -1 -24 -37 -11 -84 37 -131 39 -38 39 -39 17 -46 -13 -3 -62 -6 -110 -7
-95 -1 -177 19 -250 62 -61 36 -141 123 -177 195 -65 129 -64 121 -69 740 l-3
562 263 0 263 0 22 -48 c49 -106 142 -166 258 -166 70 0 111 13 186 61 l27 17
103 -89 c141 -120 140 -119 127 -156 -15 -43 -3 -150 21 -198 96 -187 369
-169 427 28 49 165 -81 316 -256 297 l-55 -6 -86 72 c-243 204 -218 177 -218
234 -1 81 -26 147 -74 196 -54 56 -107 81 -184 86 -113 8 -213 -46 -264 -142
l-24 -46 -265 2 -265 3 -5 65 c-7 80 -20 105 -63 119 -40 13 -72 4 -102 -29
-20 -22 -20 -38 -23 -684 -2 -386 1 -694 7 -741 38 -317 229 -541 522 -616 91
-23 285 -16 401 14 311 82 598 317 692 568 l24 64 78 26 c308 101 489 319 520
624 6 56 10 65 51 106 95 94 201 283 238 425 48 182 42 398 -14 554 -32 88
-79 178 -116 222 l-23 27 28 55 c39 77 54 176 47 321 -15 352 -230 672 -522
776 -54 20 -65 28 -65 47 0 96 -68 282 -142 389 -79 116 -241 241 -374 290
-87 31 -218 53 -285 47 l-54 -5 -35 57 c-125 202 -418 334 -633 283z"/>
    <path d="M6150 6527 c-100 -28 -160 -87 -192 -191 -26 -83 -16 -154 34 -227
l18 -27 -82 -133 c-44 -74 -118 -195 -163 -269 l-82 -135 -69 3 c-120 5 -208
-36 -264 -125 -16 -25 -32 -62 -35 -84 -5 -31 -13 -43 -33 -50 -15 -6 -187
-53 -382 -105 -195 -51 -380 -100 -410 -108 -49 -14 -55 -14 -64 1 -20 36 -82
96 -120 115 -57 29 -163 36 -220 14 -142 -54 -214 -190 -175 -331 l11 -40
-172 -168 c-143 -140 -176 -168 -194 -162 -106 32 -173 29 -250 -13 -177 -96
-193 -333 -32 -461 54 -43 97 -54 188 -49 73 4 84 8 136 45 80 56 117 129 116
227 0 41 -7 87 -16 108 l-16 36 163 161 163 161 49 -22 c35 -16 67 -22 118
-22 130 0 219 61 266 183 20 50 29 63 54 70 16 6 136 37 265 71 129 34 309 82
399 106 l164 45 43 -49 c100 -115 268 -133 391 -42 57 42 96 123 101 210 3 56
0 73 -27 124 -28 56 -29 61 -15 88 14 28 235 392 287 474 l26 41 68 -4 c37 -3
85 -1 105 5 l38 10 89 -96 c185 -203 251 -277 251 -286 0 -5 -10 -30 -22 -55
-32 -64 -32 -188 -1 -246 85 -159 295 -200 427 -84 99 88 125 218 65 337 -53
107 -173 164 -294 141 l-50 -10 -35 39 c-40 45 -217 244 -279 313 l-41 47 20
43 c26 59 27 168 1 225 -53 116 -199 185 -321 151z"/>
  </g>
</svg>